<svg xmlns="http://www.w3.org/2000/svg" xmlns:xlink="http://www.w3.org/1999/xlink" width="495.856" height="240" viewBox="0 0 495.856 240"><defs><linearGradient id="a" x1="1" y1="0.5" x2="0" y2="0.5" gradientUnits="objectBoundingBox"><stop offset="0" stop-color="#c9e7f9"/><stop offset="1" stop-color="#aafff9"/></linearGradient><clipPath id="b"><path d="M422.769,200.322a.6.6,0,0,1,.119-.162v-.076a16.567,16.567,0,0,1,14.5-10.569c12.692-.964,15.579,9,15.579,12.21v8.2a3.861,3.861,0,0,1-1.083,2.508h.265v6.5l-21.051,3.64v-1.024l-5.314,2.237a3,3,0,0,1-3.586-1.051,16.656,16.656,0,0,1-2.27-6.213.216.216,0,0,1,0-.06.7.7,0,0,1-.087-.3A36.162,36.162,0,0,1,422.769,200.322Zm23.791,5.742a2.167,2.167,0,1,0,2.167,2.167,2.167,2.167,0,0,0-2.167-2.167Zm-24.3,8.4a13.64,13.64,0,0,0,7.914-2.779,18.782,18.782,0,0,0,6.576-9.09c.439-1.251-.108-3.342-1.435-3.283a6.493,6.493,0,0,0-3.537,1.625,10.335,10.335,0,0,1-7.275,1.874,1.869,1.869,0,0,1-.883-.3,35.091,35.091,0,0,0-2.221,12.075A3.407,3.407,0,0,1,422.265,214.46Z" transform="translate(-419.77 -189.449)" fill="none"/></clipPath><clipPath id="c"><path d="M98.972,318.551,490.5,289.034a34.4,34.4,0,0,0,31.722-36.9h0a34.4,34.4,0,0,0-36.9-31.722L203.906,241.96c-18.96,1.425-121.84,27.524-141.829,44.869h0A34.409,34.409,0,0,0,98.972,318.551Z" transform="translate(-62.077 -220.317)" fill="none"/></clipPath></defs><g transform="translate(0 0)"><g transform="translate(0)"><path d="M419.73,219.978l32.383,2.427-8.5-22.665-21.451,6.473Z" transform="translate(-185.231 -89.97)" fill="url(#a)"/><path d="M422.769,200.322a.6.6,0,0,1,.119-.162v-.076a16.567,16.567,0,0,1,14.5-10.569c12.692-.964,15.579,9,15.579,12.21v8.2a3.861,3.861,0,0,1-1.083,2.508h.265v6.5l-21.051,3.64v-1.024l-5.314,2.237a3,3,0,0,1-3.586-1.051,16.656,16.656,0,0,1-2.27-6.213.216.216,0,0,1,0-.06.7.7,0,0,1-.087-.3A36.162,36.162,0,0,1,422.769,200.322Zm23.791,5.742a2.167,2.167,0,1,0,2.167,2.167,2.167,2.167,0,0,0-2.167-2.167Zm-24.3,8.4a13.64,13.64,0,0,0,7.914-2.779,18.782,18.782,0,0,0,6.576-9.09c.439-1.251-.108-3.342-1.435-3.283a6.493,6.493,0,0,0-3.537,1.625,10.335,10.335,0,0,1-7.275,1.874,1.869,1.869,0,0,1-.883-.3,35.091,35.091,0,0,0-2.221,12.075A3.407,3.407,0,0,1,422.265,214.46Z" transform="translate(-186.103 -85.254)" fill="#8e2525"/><g transform="translate(233.667 104.196)" clip-path="url(#b)"><path d="M404.015,154.98l2.579,3.635-42.87,30.373v52.979H359.27V186.919Z" transform="translate(-340.627 -173.652)" fill="#ff0303"/></g><rect width="55.048" height="23.884" transform="translate(45.471 143.773)" fill="#9b9b9b"/><path d="M755.869,253.421h32.377v-16.6L747.77,235.61Z" transform="translate(-699.065 -106.409)" fill="#9b9b9b"/><path d="M809.777,235.61l6.625,14.572S818.683,242.49,809.777,235.61Z" transform="translate(-761.072 -106.409)" fill="#191919"/><path d="M760.658,262.51l-33.819.081s13.981,3.559,33.819,3.153Z" transform="translate(-660.139 -118.737)" fill="#d6d6d6"/><rect width="11.332" height="1.213" transform="translate(60.063 147.979) rotate(169.09)" fill="#191919"/><rect width="11.332" height="1.213" transform="translate(61.275 150.408) rotate(169.09)" fill="#191919"/><path d="M98.972,318.551,490.5,289.034a34.4,34.4,0,0,0,31.722-36.9h0a34.4,34.4,0,0,0-36.9-31.722L203.906,241.96c-18.96,1.425-121.84,27.524-141.829,44.869h0A34.409,34.409,0,0,0,98.972,318.551Z" transform="translate(-61.697 -99.4)" fill="#ff0303"/><g transform="translate(0.38 120.917)" clip-path="url(#c)"><rect width="197.939" height="12.546" transform="translate(204.214 -61.691) rotate(117.2)" fill="#8e2525"/><rect width="197.939" height="12.546" transform="translate(226.472 -55.627) rotate(117.2)" fill="#8e2525"/><rect width="197.939" height="12.546" transform="translate(249.952 -48.741) rotate(117.2)" fill="#8e2525"/></g><rect width="446.01" height="20.238" rx="10.119" transform="translate(446.432 197.359) rotate(176.66)" fill="#8e2525"/><path d="M211.99,148.711,339.9,127.26v71.646L214.01,207l19.837-46.549Z" transform="translate(39.513 -56.752)" fill="#ff0303"/><rect width="14.572" height="4.117" transform="translate(335.646 145.686) rotate(-159.42)" fill="#5e5e5e"/><rect width="14.572" height="4.117" transform="translate(331.7 156.195) rotate(-159.42)" fill="#5e5e5e"/><rect width="11.332" height="96.168" transform="translate(326.079 129.706) rotate(-159.42)" fill="#777"/><ellipse cx="5.666" cy="5.238" rx="5.666" ry="5.238" transform="translate(357.517 45.982) rotate(-159.42)" fill="#5e5e5e"/><ellipse cx="5.683" cy="5.254" rx="5.683" ry="5.254" transform="matrix(-0.937, -0.349, 0.349, -0.937, 357.59, 44.942)" fill="#9b9b9b"/><ellipse cx="4.859" cy="4.491" rx="4.859" ry="4.491" transform="translate(357.546 43.599) rotate(-159.42)" fill="#191919"/><rect width="19.431" height="81.948" transform="translate(307.772 189.98) rotate(-159.42)" fill="#9b9b9b"/><rect width="11.332" height="96.168" transform="translate(350.333 138.809) rotate(-159.42)" fill="#777"/><ellipse cx="5.666" cy="5.238" rx="5.666" ry="5.238" transform="translate(381.771 55.085) rotate(-159.42)" fill="#5e5e5e"/><ellipse cx="5.666" cy="5.238" rx="5.666" ry="5.238" transform="translate(382.293 53.691) rotate(-159.42)" fill="#9b9b9b"/><ellipse cx="4.859" cy="4.491" rx="4.859" ry="4.491" transform="translate(381.801 52.707) rotate(-159.42)" fill="#191919"/><rect width="19.431" height="81.948" transform="translate(332.02 199.088) rotate(-159.42)" fill="#9b9b9b"/><rect width="14.572" height="4.388" transform="translate(442.895 121.862) rotate(-159.42)" fill="#5e5e5e"/><rect width="14.572" height="4.388" transform="translate(438.682 133.069) rotate(-159.42)" fill="#5e5e5e"/><rect width="11.332" height="102.549" transform="translate(433.595 105.158) rotate(-159.42)" fill="#777"/><ellipse cx="5.666" cy="5.585" rx="5.666" ry="5.585" transform="translate(467.12 15.883) rotate(-159.42)" fill="#5e5e5e"/><ellipse cx="5.683" cy="5.602" rx="5.683" ry="5.602" transform="matrix(-0.937, -0.349, 0.349, -0.937, 467.605, 14.466)" fill="#9b9b9b"/><ellipse cx="4.859" cy="4.789" rx="4.859" ry="4.789" transform="translate(467.205 13.358) rotate(-159.42)" fill="#191919"/><rect width="19.431" height="87.382" transform="translate(413.826 169.335) rotate(-159.42)" fill="#9b9b9b"/><rect width="11.332" height="102.549" transform="translate(457.854 114.269) rotate(-159.42)" fill="#777"/><ellipse cx="5.666" cy="5.585" rx="5.666" ry="5.585" transform="translate(491.375 24.986) rotate(-159.42)" fill="#5e5e5e"/><ellipse cx="5.666" cy="5.585" rx="5.666" ry="5.585" transform="translate(491.93 23.49) rotate(-159.42)" fill="#9b9b9b"/><ellipse cx="4.859" cy="4.789" rx="4.859" ry="4.789" transform="translate(491.454 22.46) rotate(-159.42)" fill="#191919"/><rect width="19.431" height="87.382" transform="translate(438.08 178.446) rotate(-159.42)" fill="#9b9b9b"/><rect width="14.616" height="4.455" transform="matrix(-0.937, -0.349, 0.349, -0.937, 388.269, 138.535)" fill="#5e5e5e"/><rect width="14.572" height="4.442" transform="translate(384.213 149.2) rotate(-159.42)" fill="#5e5e5e"/><rect width="11.332" height="103.741" transform="translate(379.228 121.031) rotate(-159.42)" fill="#777"/><ellipse cx="5.666" cy="5.65" rx="5.666" ry="5.65" transform="translate(413.141 30.709) rotate(-159.42)" fill="#5e5e5e"/><ellipse cx="5.683" cy="5.667" rx="5.683" ry="5.667" transform="matrix(-0.937, -0.349, 0.349, -0.937, 413.447, 29.411)" fill="#9b9b9b"/><ellipse cx="4.859" cy="4.843" rx="4.859" ry="4.843" transform="translate(413.235 28.154) rotate(-159.42)" fill="#191919"/><rect width="19.431" height="88.4" transform="translate(359.175 185.936) rotate(-159.42)" fill="#9b9b9b"/><rect width="11.332" height="103.741" transform="translate(403.478 130.134) rotate(-159.42)" fill="#777"/><ellipse cx="5.666" cy="5.65" rx="5.666" ry="5.65" transform="translate(437.39 39.811) rotate(-159.42)" fill="#5e5e5e"/><ellipse cx="5.666" cy="5.65" rx="5.666" ry="5.65" transform="translate(437.961 38.304) rotate(-159.42)" fill="#9b9b9b"/><ellipse cx="4.859" cy="4.843" rx="4.859" ry="4.843" transform="translate(437.489 37.265) rotate(-159.42)" fill="#191919"/><rect width="19.49" height="88.67" transform="matrix(-0.937, -0.349, 0.349, -0.937, 383.364, 195.921)" fill="#9b9b9b"/><ellipse cx="67.182" cy="67.605" rx="67.182" ry="67.605" transform="translate(341.94 240) rotate(-92.41)" fill="#32323f"/><ellipse cx="65.384" cy="65.796" rx="65.384" ry="65.796" transform="translate(343.672 238.127) rotate(-92.41)" fill="#474757"/><ellipse cx="49.187" cy="49.496" rx="49.187" ry="49.496" transform="translate(359.276 221.259) rotate(-92.41)"/><ellipse cx="46.787" cy="47.085" rx="46.787" ry="47.085" transform="translate(361.584 218.76) rotate(-92.41)" fill="#fff"/><ellipse cx="44.387" cy="44.669" rx="44.387" ry="44.669" transform="translate(363.897 216.261) rotate(-92.41)" fill="#ddd"/><ellipse cx="27.594" cy="27.768" rx="27.594" ry="27.768" transform="translate(380.077 198.772) rotate(-92.41)" fill="#bac0d8"/><ellipse cx="25.195" cy="25.352" rx="25.195" ry="25.352" transform="translate(382.39 196.273) rotate(-92.41)" fill="#acafbc"/><ellipse cx="38.607" cy="38.851" rx="38.607" ry="38.851" transform="translate(88.119 237.586) rotate(-92.41)" fill="#32323f"/><ellipse cx="37.573" cy="37.811" rx="37.573" ry="37.811" transform="translate(89.115 236.509) rotate(-92.41)" fill="#474757"/><ellipse cx="28.266" cy="28.445" rx="28.266" ry="28.445" transform="translate(98.081 226.816) rotate(-92.41)"/><ellipse cx="26.885" cy="27.058" rx="26.885" ry="27.058" transform="translate(99.409 225.378) rotate(-92.41)" fill="#fff"/><ellipse cx="25.509" cy="25.671" rx="25.509" ry="25.671" transform="translate(100.737 223.945) rotate(-92.41)" fill="#ddd"/><ellipse cx="15.868" cy="15.971" rx="15.868" ry="15.971" transform="translate(110.572 213.147) rotate(-92.291)" fill="#bac0d8"/><ellipse cx="14.48" cy="14.566" rx="14.48" ry="14.566" transform="translate(111.368 212.459) rotate(-92.41)" fill="#acafbc"/></g></g></svg>