<svg xmlns="http://www.w3.org/2000/svg" xmlns:xlink="http://www.w3.org/1999/xlink" width="309.53" height="132.067" viewBox="0 0 309.53 132.067">
  <defs>
    <clipPath id="clip-path">
      <path d="M191.925,48.044c-18.242-36.689-27.75-35.339-27.75-35.339s-24.071-.777-31.678-.118-10.175,5.494-10.175,5.494l-7.643,11.735s-5.093,6.906,7.572,8.317C132.372,39.255,191.925,48.044,191.925,48.044Z" fill="none"/>
    </clipPath>
    <clipPath id="clip-path-2">
      <path d="M197.124,12.821l22.72,24.271-12.713,11.7L186.329,19.7s-3.787-4.163.019-6.219Z" fill="none"/>
    </clipPath>
  </defs>
  <g id="Layer_2" data-name="Layer 2">
    <g id="Layer_1-2" data-name="Layer 1">
      <g id="Basic_DarkBlue" data-name="Basic DarkBlue">
        <g id="Layer_2-2" data-name="Layer 2">
          <g id="Premium">
            <g id="premium-water">
              <path d="M219.211,37.088l34.856.126c27.289.1,49.33,15.639,49.221,45.4l-.07,19.345a6.935,6.935,0,0,1-.048,13.819L78.241,114.97,6,102.236A6.587,6.587,0,0,1,6.045,89.11L5.92,46.315C5.951,37.73,12.357,30.79,20.232,30.82l2.193.008c32.857.117,56.078-8.1,84.893-23.89l6.208-3.4A34.267,34.267,0,0,1,124.941.124c6.354-.667,50.679,1.569,50.679,1.569s13.946-2.022,21.5,11.133,22.717,24.958,22.717,24.958" fill="#1839a0"/>
              <path d="M303.209,101.964a6.935,6.935,0,0,1-.048,13.819l-224.92-.813L6,102.236A6.587,6.587,0,0,1,6.045,89.11l-.2-31.1L19.09,71.874l-.683,17.3L18.39,93.3l57.993,9.917Z" fill="#474757"/>
              <g opacity="0.13" style="isolation: isolate">
                <path d="M303.266,86.073s-18.176-45.29-84.774-25.5L5.92,46.315C5.951,37.73,12.357,30.79,20.232,30.82l43.156.187c8.87.031,141.852,18.481,141.852,18.481L219.226,37.1l34.856.125S303.266,35.486,303.266,86.073Z"/>
              </g>
              <ellipse cx="256.728" cy="98.559" rx="33.718" ry="33.504" transform="translate(-8.221 24.905) rotate(-5.466)" fill="#32323f"/>
              <ellipse cx="256.728" cy="98.559" rx="32.815" ry="32.609" transform="translate(-8.221 24.905) rotate(-5.466)" fill="#474757"/>
              <ellipse cx="256.728" cy="98.559" rx="24.686" ry="24.531" transform="translate(-8.221 24.905) rotate(-5.466)"/>
              <ellipse cx="256.728" cy="98.559" rx="23.481" ry="23.335" transform="translate(-8.221 24.905) rotate(-5.466)" fill="#fff"/>
              <ellipse cx="256.728" cy="98.559" rx="22.277" ry="22.14" transform="translate(-8.221 24.905) rotate(-5.466)" fill="#ddd"/>
              <ellipse cx="256.728" cy="98.559" rx="13.847" ry="13.76" transform="translate(-8.221 24.905) rotate(-5.466)" fill="#bac0d8"/>
              <ellipse cx="256.728" cy="98.559" rx="12.642" ry="12.564" transform="matrix(0.995, -0.095, 0.095, 0.995, -8.221, 24.905)" fill="#acafbc"/>
              <g clip-path="url(#clip-path)">
                <path d="M190.769,11.355H109.586V48.044h82.339V11.355Z" fill="#aafff9"/>
              </g>
              <g clip-path="url(#clip-path-2)">
                <path d="M219.03,12.821H182.542V48.789h37.3V12.821Z" fill="#abfef9"/>
              </g>
            </g>
          </g>
        </g>
        <ellipse cx="65.76" cy="98.559" rx="33.718" ry="33.504" transform="translate(-9.09 6.713) rotate(-5.466)" fill="#32323f"/>
        <ellipse cx="65.76" cy="98.559" rx="32.815" ry="32.609" transform="translate(-9.09 6.713) rotate(-5.466)" fill="#474757"/>
        <ellipse cx="65.76" cy="98.559" rx="24.686" ry="24.531" transform="translate(-9.09 6.713) rotate(-5.466)"/>
        <ellipse cx="65.76" cy="98.559" rx="23.481" ry="23.335" transform="translate(-9.09 6.713) rotate(-5.466)" fill="#fff"/>
        <ellipse cx="65.76" cy="98.559" rx="22.277" ry="22.14" transform="translate(-9.09 6.713) rotate(-5.466)" fill="#ddd"/>
        <ellipse cx="65.76" cy="98.559" rx="13.847" ry="13.76" transform="matrix(0.995, -0.095, 0.095, 0.995, -9.09, 6.713)" fill="#bac0d8"/>
        <ellipse cx="65.76" cy="98.559" rx="12.642" ry="12.564" transform="translate(-9.09 6.713) rotate(-5.466)" fill="#acafbc"/>
      </g>
    </g>
  </g>
</svg>
