<svg xmlns="http://www.w3.org/2000/svg" xmlns:xlink="http://www.w3.org/1999/xlink" width="309.53" height="132.067" viewBox="0 0 309.53 132.067">
  <defs>
    <clipPath id="clip-path">
      <path d="M191.925,48.044c-18.242-36.689-27.75-35.339-27.75-35.339s-24.071-.777-31.678-.118-10.175,5.494-10.175,5.494l-7.643,11.735s-5.093,6.906,7.572,8.317C132.372,39.255,191.925,48.044,191.925,48.044Z" fill="none"/>
    </clipPath>
    <clipPath id="clip-path-2">
      <path d="M197.124,12.821l22.72,24.271-12.713,11.7L186.329,19.7s-3.787-4.163.019-6.219Z" fill="none"/>
    </clipPath>
  </defs>
  <g id="Layer_2" data-name="Layer 2">
    <g id="Layer_1-2" data-name="Layer 1">
      <g id="Basic_Blue" data-name="Basic Blue">
        <g id="Layer_2-2" data-name="Layer 2">
          <g id="Premium">
            <g id="premium-water">
              <path d="M219.211,37.088l34.856.126c27.289.1,49.33,15.639,49.221,45.4l-.07,19.345a6.935,6.935,0,0,1-.048,13.819L78.241,114.97,6,102.236A6.587,6.587,0,0,1,6.045,89.11L5.92,46.315C5.951,37.73,12.357,30.79,20.232,30.82l2.193.008c32.857.117,56.078-8.1,84.893-23.89l6.208-3.4A34.267,34.267,0,0,1,124.941.124c6.354-.667,50.679,1.569,50.679,1.569s13.946-2.022,21.5,11.133,22.717,24.958,22.717,24.958" fill="#1b92db"/>
              <path d="M303.209,101.964a6.935,6.935,0,0,1-.048,13.819l-224.92-.813L6,102.236A6.587,6.587,0,0,1,6.045,89.11l-.2-31.1L19.09,71.874l-.683,17.3L18.39,93.3l57.993,9.917Z" fill="#474757"/>
              <g opacity="0.13" style="isolation: isolate">
                <path d="M303.266,86.073s-18.176-45.29-84.774-25.5L5.92,46.315C5.951,37.73,12.357,30.79,20.232,30.82l43.156.187c8.87.031,141.852,18.481,141.852,18.481L219.226,37.1l34.856.125S303.266,35.486,303.266,86.073Z"/>
              </g>
              <ellipse cx="256.728" cy="98.559" rx="33.718" ry="33.504" transform="translate(-8.221 24.905) rotate(-5.466)" fill="#32323f"/>
              <ellipse cx="256.728" cy="98.559" rx="32.815" ry="32.609" transform="translate(-8.221 24.905) rotate(-5.466)" fill="#474757"/>
              <ellipse cx="256.728" cy="98.559" rx="24.686" ry="24.531" transform="translate(-8.221 24.905) rotate(-5.466)"/>
              <ellipse cx="256.728" cy="98.559" rx="23.481" ry="23.335" transform="translate(-8.221 24.905) rotate(-5.466)" fill="#fff"/>
              <ellipse cx="256.728" cy="98.559" rx="22.277" ry="22.14" transform="translate(-8.221 24.905) rotate(-5.466)" fill="#ddd"/>
              <ellipse cx="256.728" cy="98.559" rx="13.847" ry="13.76" transform="translate(-8.221 24.905) rotate(-5.466)" fill="#bac0d8"/>
              <ellipse cx="256.728" cy="98.559" rx="12.642" ry="12.564" transform="translate(-8.221 24.905) rotate(-5.466)" fill="#acafbc"/>
              <g clip-path="url(#clip-path)">
                <polygon points="190.769 11.355 188.231 11.355 185.692 11.355 183.154 11.355 180.616 11.355 178.077 11.355 175.539 11.355 173 11.355 170.462 11.355 167.924 11.355 165.385 11.355 162.847 11.355 160.308 11.355 157.77 11.355 155.232 11.355 152.693 11.355 150.155 11.355 147.617 11.355 145.078 11.355 142.54 11.355 140.001 11.355 137.463 11.355 134.925 11.355 132.386 11.355 129.848 11.355 127.309 11.355 124.771 11.355 122.233 11.355 119.694 11.355 117.156 11.355 114.618 11.355 109.586 11.355 109.586 48.044 114.461 48.044 117 48.044 119.538 48.044 122.076 48.044 124.615 48.044 127.153 48.044 129.692 48.044 132.23 48.044 134.768 48.044 137.307 48.044 139.845 48.044 142.383 48.044 144.922 48.044 147.46 48.044 149.999 48.044 152.537 48.044 155.075 48.044 157.614 48.044 160.152 48.044 162.691 48.044 165.229 48.044 167.767 48.044 170.306 48.044 172.844 48.044 175.383 48.044 177.921 48.044 180.459 48.044 182.998 48.044 185.536 48.044 188.074 48.044 190.613 48.044 191.925 48.044 191.925 11.355 190.769 11.355" fill="#aafff9"/>
              </g>
              <g clip-path="url(#clip-path-2)">
                <path d="M219.03,12.821H182.542V48.789h37.3V12.821Z" fill="#abfef9"/>
              </g>
            </g>
          </g>
        </g>
        <ellipse cx="65.76" cy="98.559" rx="33.718" ry="33.504" transform="translate(-9.09 6.713) rotate(-5.466)" fill="#32323f"/>
        <ellipse cx="65.76" cy="98.559" rx="32.815" ry="32.609" transform="translate(-9.09 6.713) rotate(-5.466)" fill="#474757"/>
        <ellipse cx="65.76" cy="98.559" rx="24.686" ry="24.531" transform="translate(-9.09 6.713) rotate(-5.466)"/>
        <ellipse cx="65.76" cy="98.559" rx="23.481" ry="23.335" transform="translate(-9.09 6.713) rotate(-5.466)" fill="#fff"/>
        <ellipse cx="65.76" cy="98.559" rx="22.277" ry="22.14" transform="translate(-9.09 6.713) rotate(-5.466)" fill="#ddd"/>
        <ellipse cx="65.76" cy="98.559" rx="13.847" ry="13.76" transform="translate(-9.09 6.713) rotate(-5.466)" fill="#bac0d8"/>
        <ellipse cx="65.76" cy="98.559" rx="12.642" ry="12.564" transform="translate(-9.09 6.713) rotate(-5.466)" fill="#acafbc"/>
      </g>
    </g>
  </g>
</svg>
